<svg width="162" height="162" viewBox="0 0 162 162" fill="none" xmlns="http://www.w3.org/2000/svg">
<path d="M144 0H18C8.05888 0 0 8.05887 0 18V144C0 153.941 8.05887 162 18 162H144C153.941 162 162 153.941 162 144V18C162 8.05888 153.941 0 144 0Z" fill="#FEC010"/>
<path d="M76.408 87.3008L49.6893 124.527C48.3168 126.44 46.0218 127.43 43.693 127.148C41.038 126.822 37.393 125.821 33.6243 123.121C29.8555 120.421 27.7518 117.282 26.593 114.875C25.5693 112.76 25.783 110.262 27.1555 108.35L53.8743 71.1233C55.1455 69.3458 56.8105 67.8945 58.7455 66.882L63.9993 64.1145C65.0568 63.5633 66.0018 62.8208 66.7893 61.9208C69.343 59.0295 76.1943 51.4583 88.333 39.2295L88.5468 38.262C88.5918 38.037 88.7718 37.857 88.9855 37.812L89.6493 37.6433C89.9418 37.5645 90.133 37.2945 90.1105 36.9908L90.043 36.1695C90.0093 35.832 90.2793 35.5283 90.6168 35.517C91.4268 35.4945 92.9905 35.7308 95.2068 37.317C97.423 38.9033 98.143 40.3208 98.3793 41.0858C98.4805 41.412 98.278 41.7495 97.9405 41.8395L97.1418 42.042C96.8493 42.1095 96.658 42.3908 96.6805 42.6833L96.7368 43.3695C96.7593 43.5945 96.6468 43.8195 96.4443 43.932L95.5893 44.4383C87.883 59.862 82.9105 68.772 80.9868 72.1133C80.3905 73.1483 79.9968 74.2733 79.8055 75.4545L78.8605 81.3158C78.523 83.487 77.6793 85.5233 76.408 87.3008Z" fill="#C27029"/>
<path d="M134.855 108.348L108.136 71.1217C106.865 69.3442 105.2 67.893 103.265 66.8805L98.0111 64.113C96.9536 63.5617 96.0086 62.8192 95.2211 61.9192C94.5911 61.2105 93.6911 60.198 92.5324 58.9267C92.3524 58.7242 92.0036 58.7692 91.8799 59.0055C87.8299 66.7567 85.1074 71.6167 83.8699 73.7542C83.4761 74.4405 83.2061 75.1942 83.0824 75.9705C82.8124 77.6467 82.8124 79.3455 83.0824 81.0217L83.1274 81.3142C83.4761 83.4742 84.3199 85.5105 85.5911 87.288L112.31 124.514C113.671 126.404 115.932 127.417 118.239 127.136C120.894 126.809 124.572 125.83 128.375 123.097C132.144 120.397 134.247 117.258 135.406 114.85C136.43 112.758 136.216 110.26 134.855 108.348Z" fill="#82491F"/>
<path d="M64.0572 41.8381L64.8559 42.0406C65.1484 42.1081 65.3397 42.3894 65.3172 42.6819L65.2609 43.3681C65.2384 43.5931 65.3509 43.8181 65.5534 43.9306L66.4084 44.4369C67.8372 47.2944 69.1534 49.9044 70.3909 52.3119C70.5147 52.5481 70.8072 52.5931 70.9872 52.4019C72.9897 50.2531 75.4084 47.7106 78.2547 44.7631C78.4909 44.5156 78.5022 44.1331 78.2659 43.8856C76.8259 42.4119 75.3072 40.8706 73.6647 39.2169L73.4509 38.2494C73.4059 38.0244 73.2259 37.8444 73.0122 37.7994L72.3484 37.6306C72.0559 37.5519 71.8647 37.2819 71.8872 36.9781L71.9547 36.1569C71.9772 35.8194 71.7297 35.5156 71.3922 35.5044C70.5934 35.4819 69.0184 35.7069 66.7909 37.3044C64.5747 38.8906 63.8547 40.3081 63.6184 41.0731C63.5172 41.4106 63.7197 41.7594 64.0572 41.8381Z" fill="#82491F"/>
</svg>
