<svg width="162" height="162" xmlns="http://www.w3.org/2000/svg" fill="none">

 <g>
  <title>Layer 1</title>
  <path stroke="null" id="svg_1" fill="#FEC010" d="m144,0l-126,0c-9.94112,0 -18,8.05887 -18,18l0,126c0,9.941 8.05887,18 18,18l126,0c9.941,0 18,-8.059 18,-18l0,-126c0,-9.94112 -8.059,-18 -18,-18z"/>
  <g stroke="null" fill="#BBBBBB">
   <path stroke="null" d="m80.82143,81.36735c12.25301,0 22.18367,-9.93066 22.18367,-22.18367s-9.93066,-22.18367 -22.18367,-22.18367s-22.18367,9.93066 -22.18367,22.18367s9.93066,22.18367 22.18367,22.18367zm15.52857,5.54592l-2.89428,0c-3.84748,1.76776 -8.12824,2.77296 -12.6343,2.77296s-8.76948,-1.0052 -12.6343,-2.77296l-2.89428,0c-12.8596,0 -23.29286,10.43326 -23.29286,23.29286l0,7.20969c0,4.59271 3.72616,8.31888 8.31888,8.31888l61.0051,0c4.59271,0 8.31888,-3.72616 8.31888,-8.31888l0,-7.20969c0,-12.8596 -10.43326,-23.29286 -23.29286,-23.29286z" fill="#82491f"/>
  </g>
 </g>
</svg>